<svg width="757" height="304" viewBox="0 0 757 304" fill="none" xmlns="http://www.w3.org/2000/svg">
<rect y="25" width="555" height="144" fill="#979793"/>
<path d="M20.5628 198.8C29.9966 186.06 38.2816 172.417 46.2533 158.686C42.354 160.987 38.8088 164.123 35.6358 166.795C24.266 176.37 12.6891 188.78 6.46993 202.45C6.20948 203.023 0.413586 217.658 4.03662 217.658C6.07033 217.658 8.98101 213.825 10.0861 212.521C13.7939 208.146 17.1528 203.405 20.5628 198.8Z" fill="#C4C4C4"/>
<path d="M90.2838 67.0637C81.0131 96.6297 66.4238 123.567 51.0467 150.371C41.5779 166.876 31.8999 183.489 20.5628 198.8C17.1528 203.405 13.7939 208.146 10.0861 212.521C8.98101 213.825 6.07033 217.658 4.03662 217.658C0.413586 217.658 6.20948 203.023 6.46993 202.45C12.6891 188.78 24.266 176.37 35.6358 166.795C41.3078 162.019 48.169 155.758 56.1161 155.44C63.1016 155.161 68.1574 163.621 71.2905 168.654C74.6836 174.105 78.3442 178.756 85.6875 176.698C104.267 171.488 118.913 154.555 129.757 139.624C143.574 120.6 154.655 99.4624 163.08 77.5405C169.709 60.2931 179.324 39.6406 176.869 20.493C175.394 8.98816 168.521 1.54073 156.659 1.97281C139.553 2.59587 123.246 18.7401 113.873 31.7808C105.354 43.6339 93.6565 60.9444 96.6374 76.5942C97.6251 81.7793 101.413 83.5115 106.337 84.0969C119.973 85.718 131.765 78.1918 143.816 73.147" stroke="black" stroke-width="3" stroke-linecap="round"/>
<path d="M156.591 126.68C155.445 139.445 150.32 150.306 146.993 162.503C146.451 164.493 144.868 168.889 146.047 170.952C147.618 173.702 154.3 170.785 155.983 170.074C169.131 164.515 181.851 150.34 186.872 137.021C190.023 128.667 185.625 123.233 176.531 123.233C168.837 123.233 159.463 125.815 153.11 130.262C150.876 131.826 149.772 132.601 153.144 131.344C164.601 127.072 175.401 122.577 186.264 116.879C191.4 114.185 196.425 111.426 201.371 108.396C204.589 106.425 209.587 102.168 213.639 102.009C218.146 101.832 204.767 124.053 203.77 125.666C200.388 131.138 197.032 136.602 193.902 142.226C192.714 144.36 190.766 147.066 190.658 149.661C190.497 153.522 210.943 141.053 212.625 139.995C218.622 136.223 224.063 131.658 230.064 127.896C231.209 127.178 237.523 122.893 239.324 123.875C242.968 125.863 175.702 186.218 236.417 142.023C248.318 133.36 259.573 123.832 271.43 115.121C272.424 114.391 270.773 117.549 270.078 118.569C264.945 126.105 259.215 133.196 254.228 140.84C246.082 153.326 238.475 167.721 234.592 182.206C230.838 196.212 230.445 209.426 223.811 222.829C211.402 247.903 194.513 271.904 176.024 292.888C175.573 293.4 168.559 302.347 167.034 301.878C166.397 301.682 191.1 261.486 192.077 260.038C210.348 232.967 230.218 206.875 249.8 180.753C269.887 153.959 291.478 128.136 310.633 100.657C323.173 82.668 334.278 63.6832 345.443 44.826C349.493 37.9857 353.36 31.2361 355.311 23.467C358.968 8.90816 340.451 26.0896 338.143 28.8067C311.223 60.4979 293.258 100.277 274.978 137.258C273.623 140.001 256.958 174.242 263.522 174.129C271.201 173.997 280.516 165.694 286.097 161.726C299.192 152.416 311.674 142.298 324.523 132.662C330.856 127.912 337.238 123.09 343.854 118.738C349.211 115.214 342.878 123.379 342.604 123.773C336.915 131.947 330.219 139.321 323.813 146.923C319.745 151.752 316.276 155.885 312.492 160.881C310.503 163.507 306.767 167.793 305.902 171.29C304.949 175.138 314.09 171.251 317.663 169.533C329.359 163.908 339.805 155.481 350.309 147.971C357.588 142.768 364.712 137.277 372.142 132.29C378.658 127.916 376.511 131.97 373.392 135.805C369.362 140.76 364.939 145.378 361.158 150.54C358.627 153.995 358.346 155.78 363.591 154.494C376.993 151.208 389.8 144.826 402.22 138.981C415.008 132.964 427.773 126.963 440.68 121.205" stroke="black" stroke-width="3" stroke-linecap="round"/>
<path d="M457.713 48.8139C464.002 43.8722 470.545 40.5665 477.788 37.2557C480.331 36.093 473.753 41.1294 471.738 43.0686C460.968 53.4335 450.306 64.1978 441.085 75.9858C438.414 79.4015 407.502 115.791 426.891 116.338C439.177 116.685 453.283 110.352 464.81 106.706C471.165 104.696 477.456 102.444 483.938 100.86C485.726 100.423 491.027 98.6872 493.131 99.8795C497.339 102.264 452.919 144.541 449.264 148.005C441.755 155.121 435.003 162.761 429.324 171.425C427.748 173.831 424.857 177.19 429.29 178.218C438.927 180.453 451.182 174.662 460.214 172.169C471.86 168.954 483.61 166.347 495.564 164.565C499.683 163.951 503.96 163.122 508.136 163.652C512.152 164.162 507.285 170.34 506.244 171.899C503.927 175.366 475.148 208.491 475.76 208.871C477.227 209.783 479.174 208.2 480.762 207.52C491.851 202.762 502.278 196.538 512.564 190.284C537.152 175.333 560.583 158.963 582.487 140.266C602.381 123.284 620.116 105.061 636.324 84.57C645.841 72.5389 657.677 59.3032 661.637 44.0149C664.986 31.0878 653.837 31.878 644.266 33.1326C616.866 36.7244 597.178 57.4091 578.905 76.5603C563.487 92.719 552.734 110.036 545.853 131.344C542.08 143.025 537.363 157.246 545.346 168.147C555.291 181.728 577.481 173.636 590.26 169.465C613.251 161.963 633.373 149.409 652.986 135.602C653.19 135.458 663.824 127.915 665.625 126.713C666.1 126.397 667.393 125.373 667.112 125.869C665.788 128.205 663.054 129.389 660.961 131.073C649.703 140.134 637.878 148.914 628.484 160.002C614.645 176.337 659.87 161.647 659.948 161.625C692.168 152.236 723.198 139.214 755.184 129.113" stroke="black" stroke-width="3" stroke-linecap="round"/>
</svg>
